<svg xmlns="http://www.w3.org/2000/svg" viewBox="0 0 355.12 355.12"><defs><style>.cls-1{opacity:0.85;}.cls-2{fill:#fff;}.cls-3{fill:#231f20;}.cls-4{fill:#58595b;}</style></defs><g id="Layer_2" data-name="Layer 2"><g id="Layer_1-2" data-name="Layer 1"><g class="cls-1"><path class="cls-2" d="M177.55,345.12c-.83,0-1.65,0-2.48,0C132,344.48,90.89,326.68,59.4,295S10.37,222.13,10,179A167.56,167.56,0,0,1,177.56,10H179A167.58,167.58,0,0,1,315.54,272.67l24.57,40.5a12.17,12.17,0,0,1-15.29,17.47l-45.53-19.92a165.73,165.73,0,0,1-101.73,34.4Z"/><path class="cls-3" d="M177.56,20h1.37C264.2,20.73,334,90.2,335.11,175.46a156.88,156.88,0,0,1-29.56,94,5.06,5.06,0,0,0-.25,5.59l26.26,43.29a2.18,2.18,0,0,1-1.84,3.31,2.23,2.23,0,0,1-.89-.19L280.65,300.4a5.06,5.06,0,0,0-2-.43,5.2,5.2,0,0,0-3.24,1.14,156.94,156.94,0,0,1-97.8,34h-2.34C91.52,333.89,20.72,262.63,20,178.93A157.56,157.56,0,0,1,177.56,20m0-20A177.42,177.42,0,0,0,0,179.1a171.29,171.29,0,0,0,14.44,67.36,183.39,183.39,0,0,0,93.21,93.79,171.31,171.31,0,0,0,67.27,14.85c.88,0,1.75,0,2.63,0a176.89,176.89,0,0,0,103-32.92l40.23,17.6A22.17,22.17,0,0,0,348.66,308l-21.28-35.08A177.78,177.78,0,0,0,179.1,0Z"/></g><path class="cls-4" d="M156.93,302c-5.76,0-10.44-1.89-13.91-5.62s-5.13-8.65-5.13-14.86c0-17.56,10.08-58.78,30.84-126a26.07,26.07,0,0,0,1.27-7.35,3.85,3.85,0,0,0,0-.59h-.14c-2,0-4.55.92-7.45,2.73-2.23,1.41-8,6.08-22.63,20.41l-2.17,2.12-14.41-11.13,2.55-2.81c13.8-15.2,26.64-26.21,38.14-32.7,11.9-6.71,21.85-10,30.43-10,5.18,0,9.3,1.23,12.25,3.66a13.13,13.13,0,0,1,4.73,10.47c0,2.78-1.39,11.12-13.41,51.32-14.24,47.88-21.46,77-21.46,86.54a4.45,4.45,0,0,0,.75,2.74,3.25,3.25,0,0,0,.44.5c1.36-.2,7.66-2.52,31-24.4l2.44-2.29,13,12.66-2.66,2.5c-19.06,17.95-32.66,29.15-41.57,34.24C170.52,299.45,163.06,302,156.93,302Z"/><path class="cls-3" d="M194.28,119.74q6.54,0,10,2.86a9.58,9.58,0,0,1,3.46,7.77q0,5.94-13.26,50.32-21.6,72.62-21.61,87.54a7.84,7.84,0,0,0,1.43,4.81,3.92,3.92,0,0,0,3.07,1.94q6.54,0,33.54-25.36l8,7.77q-28,26.39-40.91,33.75t-21.07,7.37q-7.16,0-11.35-4.5t-4.19-12.48q0-25.57,30.68-125a29.3,29.3,0,0,0,1.43-8.38q0-4.09-3.68-4.09-4.09,0-9.31,3.27T137.3,168.21l-9-7q20.43-22.5,37.28-32t28.7-9.51m0-7c-9.2,0-19.71,3.4-32.14,10.41-11.84,6.68-25,17.92-39,33.4L118,162.16l6,4.64,9,6.95,4.81,3.72,4.36-4.25c15.19-14.85,20.33-18.87,22-19.94.64-.4,1.22-.73,1.74-1-.16.71-.36,1.46-.6,2.24-20.84,67.54-31,109.1-31,127,0,7.12,2,12.93,6.07,17.25s9.8,6.73,16.47,6.73,14.79-2.71,24.54-8.29c9.16-5.23,23-16.59,42.24-34.73l5.32-5-5.23-5.1-8-7.77-4.8-4.68-4.88,4.59c-14.88,14-22.47,19.65-26.18,22,.59-8,5-29.21,21.25-83.79,13.55-45.33,13.55-50.05,13.55-52.32a16.52,16.52,0,0,0-6-13.16c-3.61-3-8.48-4.47-14.49-4.47Z"/><path class="cls-4" d="M203.51,97.75a17,17,0,0,1-12.76-5.38c-3.36-3.52-5.06-8.12-5.06-13.66a25.79,25.79,0,0,1,6.85-18,22,22,0,0,1,16.69-7.57,17.39,17.39,0,0,1,12.94,5.24,18.18,18.18,0,0,1,5.09,13.19,26.38,26.38,0,0,1-7.15,18.21C215.27,95.06,209.69,97.75,203.51,97.75Z"/><path class="cls-3" d="M209.23,56.62a14,14,0,0,1,10.44,4.19,14.75,14.75,0,0,1,4.09,10.74,22.83,22.83,0,0,1-6.24,15.85q-6.24,6.85-14,6.85A13.56,13.56,0,0,1,193.28,90q-4.09-4.3-4.09-11.25a22.28,22.28,0,0,1,5.93-15.65,18.53,18.53,0,0,1,14.11-6.44m0-7A25.36,25.36,0,0,0,190,58.32a29.18,29.18,0,0,0-7.78,20.39c0,6.47,2,11.88,6,16.07a20.59,20.59,0,0,0,15.3,6.47c7.21,0,13.66-3.07,19.18-9.14a29.72,29.72,0,0,0,8.07-20.56,21.59,21.59,0,0,0-6.08-15.63,21.08,21.08,0,0,0-15.45-6.3Z"/></g></g></svg>